<?xml version="1.0" encoding="utf-8"?>
<!-- Generator: Adobe Illustrator 24.1.1, SVG Export Plug-In . SVG Version: 6.00 Build 0)  -->
<svg version="1.1" xmlns="http://www.w3.org/2000/svg" xmlns:xlink="http://www.w3.org/1999/xlink" x="0px" y="0px"
	 viewBox="0 0 1362 722" style="enable-background:new 0 0 1362 722;" xml:space="preserve">
<style type="text/css">
	.st0{fill:#FEC9A1;}
	.st1{fill:#FCDFC9;}
	.st2{fill:#EDDCFE;}
	.st3{fill:#DBCDFE;}
	.st4{fill:#ADCFFD;}
	.st5{fill:#BCE1FE;}
	.st6{fill:#CCF0FE;}
	.st7{fill:url(#SVGID_1_);}
	.st8{fill:#FFFFFF;}
</style>
<g id="Capa_1">
	<g id="Capa_1_1_">
		<g>
			<path class="st0" d="M0.1,721.1C0.1,482,0.1,242.8,0,3.7C0,0.7,0.7,0,3.8,0C53.4,0.1,103,0.1,152.5,0.1c0,238.3,0,476.6,0,714.9
				c0,2,0,4-0.1,6C101.7,721,50.9,721,0.1,721.1z"/>
			<path class="st0" d="M1362,0.1c0,238.4,0,476.8,0,715.3c0,1.9,0,3.7,0,5.6c-50.8,0-101.6,0-152.4,0c0-1.9-0.1-3.7-0.1-5.6
				c0-238.4,0-476.9,0-715.3C1260.3,0.1,1311.1,0.1,1362,0.1z"/>
			<path class="st1" d="M152.5,721c0-2,0.1-4,0.1-6c0-238.3,0-476.6,0-714.9c50.5,0,101.1,0,151.6,0c0,171.4,0,342.9,0,514.3
				c0,68.9,0,137.7,0,206.6C253.5,721,203,721,152.5,721z"/>
			<path class="st1" d="M1209.5,0.1c0,238.4,0,476.9,0,715.3c0,1.9,0,3.7,0.1,5.6c-50.5,0-101.1,0-151.6,0c0-240.3,0-480.6,0-720.9
				C1108.5,0.1,1159,0.1,1209.5,0.1z"/>
			<path class="st2" d="M304.1,721c0-68.9,0-137.7,0-206.6c0-171.4,0-342.9,0-514.3c50.3,0,100.5,0,150.8,0c0,182.1,0,364.2,0,546.3
				c0,58.2,0,116.4,0,174.6C404.6,721,354.4,721,304.1,721z"/>
			<path class="st3" d="M454.9,721c0-58.2,0-116.4,0-174.6c0-182.1,0-364.2,0-546.3c50.3,0,100.5,0,150.8,0c0,238.4,0,476.9,0,715.3
				c0,1.9,0,3.7,0,5.6C555.4,721,505.2,721,454.9,721z"/>
			<path class="st4" d="M605.7,721c0-1.9,0-3.7,0-5.6c0-238.4,0-476.9,0-715.3c50.3,0,100.5,0,150.8,0c0,208.2,0,416.4,0,624.6
				c0,32.1,0,64.2,0,96.3C706.1,721,655.9,721,605.7,721z"/>
			<path class="st5" d="M756.4,721c0-32.1,0-64.2,0-96.3c0-208.2,0-416.4,0-624.6c50.3,0,100.5,0,150.8,0c0,182.9,0,365.8,0,548.7
				c0,57.4,0,114.8,0,172.2C856.9,721,806.6,721,756.4,721z"/>
			<path class="st6" d="M907.1,721c0-57.4,0-114.8,0-172.2c0-182.9,0-365.8,0-548.7c50.3,0,100.5,0,150.8,0c0,240.3,0,480.6,0,720.9
				C1007.7,721,957.4,721,907.1,721z"/>
		</g>
	</g>
	<g id="Capa_2_1_">
		
			<linearGradient id="SVGID_1_" gradientUnits="userSpaceOnUse" x1="0" y1="363.5" x2="1362" y2="363.5" gradientTransform="matrix(1 0 0 -1 0 724)">
			<stop  offset="0" style="stop-color:#68E0CF"/>
			<stop  offset="0.256" style="stop-color:#5AD3D8"/>
			<stop  offset="0.7342" style="stop-color:#37B1F0"/>
			<stop  offset="1" style="stop-color:#209CFF"/>
		</linearGradient>
		<rect class="st7" width="1362" height="721"/>
	</g>
</g>
<g id="Capa_2">
	<polygon class="st8" points="1362,721 0,721 0,505.7 1362,350.4 	"/>
</g>
</svg>
