<?xml version="1.0" encoding="utf-8"?>
<!-- Generator: Adobe Illustrator 24.1.1, SVG Export Plug-In . SVG Version: 6.00 Build 0)  -->
<svg version="1.1" xmlns="http://www.w3.org/2000/svg" xmlns:xlink="http://www.w3.org/1999/xlink" x="0px" y="0px"
	 viewBox="0 0 1481.8 765.9" style="enable-background:new 0 0 1481.8 765.9;" xml:space="preserve">
<style type="text/css">
	.st0{fill:#2B2B2B;}
	.st1{fill:#EC8001;}
	.st2{display:none;}
	.st3{display:inline;fill:none;}
	.st4{display:inline;}
	.st5{font-family:'Yellowtail-Regular';}
	.st6{font-size:318.8971px;}
	.st7{font-family:'HelveticaLTStd-Bold';}
	.st8{font-size:129.9988px;}
</style>
<g id="Capa_2">
	<g id="Capa_1">
		<path class="st0" d="M1248.2,127.3c-2.6-5.5-5.3-10.9-7.6-16.5c-4.5-10.8-4.7-22.1-2.2-33.4c1.5-7,5.1-13.1,10-18.3
			c4.5-4.8,9.3-9.2,14.1-13.7c4.5-4.1,9.2-8,13.6-12.1c8.8-8,17.2-26.4,18-33.3c0.8,1.6,9.1,18,8.5,32.5c0.3,8.2-1.4,15.9-5.6,22.9
			c-2.7,4.5-5.5,9-8.6,13.2c-14.7,16.4-18.2,36.5-18.5,57.4c-0.1,7.3-1.5,14.3-4.1,21c-2.5,6.3-8.1,18.8-8.1,18.8
			S1256.8,143.5,1248.2,127.3z"/>
		<path class="st0" d="M1264.5,163.7c6.5-12.8,10.1-19.2,10.8-33.2c0.4-7,0.8-20.4,2.2-27.3c3.4-20.7,22.1-37,22.8-37.1
			c4.2,17,3.7,33.9-1.2,50.7C1293.4,136.5,1280.8,151.5,1264.5,163.7z"/>
		<path class="st0" d="M1340.8,672.2c-1-0.7-2.1-1.3-3.1-2c-43.7-30.5-91.5-51.5-143.9-61.8c-14.4-2.8-29.1-4.3-43.8-5.2
			c-43.2-2.5-86.3-1.1-129.5,0.7c-44.7,1.9-89.4,4.7-134.2,4.3c-21.9-0.2-43.8-1-65.5-4.1c-19.2-2.7-38.1-6.9-55.5-15.9
			c-13.4-6.9-24.4-16.3-31.7-29.7c-0.8-1.5-1.6-3.1-2.3-4.7c-0.3-0.7-0.5-1.4-0.9-2.5c4.1,3,7.8,6.1,11.8,8.5
			c7.5,4.6,15.9,7.5,24.3,9.9c16.7,4.7,33.7,7.1,51,8.7c31,2.7,62,2.5,93,0.7c22.8-1.3,45.6-3.4,68.4-5.3
			c26.9-2.3,53.8-4.8,80.7-7.1c23.6-2.1,47.2-3.2,70.9-3.1c27.7,0,55.3,1.9,82.4,8.1c31.7,7.3,60.6,20.1,85.1,41.9
			C1316.5,629.9,1330.5,649.5,1340.8,672.2z"/>
		<path class="st0" d="M1019.2,165.1c-21.7,15.9-44.5,29.2-68,41.2c-50.8,26.1-103.9,46.2-158.7,62c-18.3,5.3-58.2,15.4-60.1,16
			c0,9.4,0,18.8,0,28c-9.1,2.9-17.8,5.5-26.4,8.4c-8.6,2.9-16.8,6.7-24.7,12.6c2.4-14.7,6.9-28.3,5.9-42.9c-7.2-1-14-1.8-20.8-2.8
			c-19-2.8-37.9-6-56.1-12.4c-5.5-2-11-4.4-16-7.5c-9.8-6.1-10.1-13.4-1.4-20.8c7.3-6.2,16-10,24.7-13.5c1-0.4,2.5-0.1,3.6,0.3
			c21.6,7.1,43.9,9.7,66.6,10.1c45,0.9,88.4-7.6,130.8-21.8c47.9-16.1,92.4-38.9,134.7-66.3c12.5-8.1,24.6-16.7,36.8-25.1
			c1.4-1,2.8-2.1,4.4-3.3c-3.8-9.5-6.8-19.1-2.9-29.7c1.1,0.8,2,1.3,2.7,2c8.3,7.8,17.7,14.2,27.4,20.2c25.5,16,52.4,29.4,79.6,42.1
			c39.7,18.5,80.2,35.1,121.1,50.9c1.5,0.6,3,1,5,1.6c0-11.7,0-22.8,0-34.3c2.7-0.5,5-1,7.3-1.3c10.2-1.2,20.4-1.4,30.6,0.6
			c24.7,5.1,34.7,21.5,32.7,45.8c-0.2,2.4-0.5,4.7-0.8,7.5c2.6,0.7,5,1.4,7.5,2c28,6.6,56.3,9.9,85.1,9.1
			c12.3-0.4,24.6,0.1,36.9,0.8c6.3,0.3,12.7,1.5,18.9,3.1c14,3.7,24.4,12.3,31.6,24.7c2.4,4,3.9,8.4,3.8,13.2
			c-0.1,7.3-4.3,13.1-11.5,14.5c-4.5,0.8-9.3,1-13.8,0.5c-13.6-1.6-27.2-3.8-40.8-5.6c-5.7-0.8-11.4-1.2-17.2-1.5
			c-6.1-0.3-9.6,2-11.3,8.2c-1.6,5.8-2.8,11.8-3.6,17.8c-3.2,23.7-4.2,47.4-3.1,71.3c0.1,1.2,0.1,2.4,0.1,3.6c0,0.5-0.2,2.4-1,2.6
			c-1.1,0.3-3,0.2-3.8,0.1c-32.4-1.1-65-0.8-97.1,7.9c1.4-0.8,22.4-13.3,32.3-26c13.7-16.7,19.3-54.6,1.1-74.1
			c-17.2-15.4-36.8-27-57.8-36.4c-22-9.9-44.9-17.8-67.6-25.8c-37.7-13.4-75-27.7-110.5-46.1C1058,187.4,1020.9,166.1,1019.2,165.1z
			"/>
	</g>
	<g>
		<path class="st0" d="M154.8,460.5c2.5,0,3.7,2,3.7,6c0,4-0.9,10.9-2.6,20.6c-1.4,6.5-8.8,15.9-22.4,28
			c-16.4,14.5-34.4,24.9-54,31.1c-11.8,3.7-23.4,5.6-34.6,5.6c-11.3,0-21.5-4.7-30.8-14.2C4.6,528.1,0,516.9,0,503.9
			c0-13,2.6-26.5,7.9-40.5c5.2-14,12.3-27.3,21.2-40c8.9-12.7,19.4-24.9,31.5-36.7c12.1-11.7,24.7-21.9,37.8-30.5
			c13.1-8.6,26.8-15.5,41.1-20.6c14.3-5.1,27.9-7.6,40.8-7.6c10.2,0,18.8,3.7,26,11.1c3.7,3.9,5.6,8.9,5.6,14.9
			c0,6-2.9,13.5-8.7,22.6c-5.8,9.1-12.7,17.4-20.6,24.8c-7.9,7.5-16.1,13.8-24.6,19c-8.5,5.2-15.2,7.8-20.3,7.8
			c-5.1,0-9.4-1.6-13.1-4.7c-3.6-3.2-5.5-6-5.5-8.5s0.5-5.2,1.6-8.3c1.1-3,2.5-4.5,4.1-4.5c-0.4,0.5-0.6,1-0.6,1.6
			c0,1.2,1.8,1.9,5.4,1.9s9.6-3.2,18-9.5c8.4-6.3,16-13.4,22.8-21.3c6.8-7.9,10.2-13.8,10.2-17.8c0-2.7-1.8-4-5.5-4
			c-9.8,0-23.2,4.5-40.4,13.6c-17.2,9.1-33.6,20.8-49.3,35.1C69.7,416,56,433,44.5,452.6c-11.6,19.7-17.4,37.3-17.4,53
			c0,6.5,1.7,11.8,5.2,15.7c3.5,3.9,8.8,5.9,16,5.9c7.2,0,15.8-2.1,25.6-6.2c9.9-4.2,19.2-9.2,28.1-15.3c8.9-6,17.3-12.2,25.1-18.5
			c7.9-6.3,14.2-11.9,18.9-16.7c4.7-4.8,7.1-7.7,7.2-8.6C153.5,461,153.9,460.5,154.8,460.5z"/>
		<path class="st0" d="M271.1,432.6c3.1,0,6.3,1.4,9.6,4.2s4.9,7.1,4.9,12.8c0,5.8-2,13.2-6.1,22.4c-4,9.2-9.6,18.5-16.7,28
			c-7.1,9.5-14.8,18.4-23.3,26.8c-8.5,8.4-17.6,15.2-27.4,20.6c-9.8,5.3-18.7,8-26.7,8c-8,0-14.4-2.5-19.2-7.6c-4.8-5-7.2-12-7.2-21
			c0-9,2.2-18.9,6.6-29.8c4.4-10.9,10.1-20.5,17.1-28.9c7-8.4,14.5-15.9,22.6-22.5c16.9-13.6,31.8-20.4,44.5-20.4
			c5.7,0,10,1.4,12.9,4.2c1,0.9,1.6,1.8,1.6,2.5v0.9C265.7,432.7,268,432.6,271.1,432.6z M255.4,453.3h-1.1c-3.6,0-5.5-2.6-5.5-7.9
			c-7.6,2.5-15.5,6.9-23.8,13.1c-8.3,6.2-15.7,13.6-22.3,22.1c-13.3,17-20,31.4-20.2,43.1c0,5.8,2.1,8.7,6.4,8.7
			c4.3,0,10.6-2.8,19-8.4c8.4-5.6,16.7-13.6,25-24c8.3-10.4,14.4-19.4,18.5-27c4.1-7.6,6.2-12.8,6.2-15.6
			C257.5,454.7,256.8,453.3,255.4,453.3z"/>
		<path class="st0" d="M282.2,552.2l-7.6-0.3h-2.8c-1-0.3-2.2-0.9-3.3-1.9c-1.2-0.9-2.1-1.6-2.7-2c-0.6-0.4-0.9-1.2-0.9-2.3
			c0-1.1,0.4-3,1.2-5.7c20.2-44.5,39.8-80.1,58.7-106.8c2.1-2.9,5.4-5.1,10-6.6c4.6-1.5,9.1-2.3,13.5-2.3c2.6,0,3.9,2,3.9,6.1
			c0,1.1-0.4,2.7-1.2,4.6c-0.8,1.9-2.9,5.1-6.2,9.4c-3.3,4.4-7.3,9.3-11.8,14.9c-4.6,5.6-7.2,8.8-7.8,9.7
			c14.2-14.7,27.1-25.7,38.5-32.9c11.5-7.2,19.8-10.8,24.9-10.8c5.1,0,9.1,1.5,11.8,4.4c2.7,3,4.1,6.1,4.1,9.5
			c0,3.4-0.2,6.2-0.7,8.4c-0.5,2.2-1.3,4.6-2.6,7c-1.2,2.4-2.3,4.5-3.2,6.2c-0.9,1.7-2.4,3.9-4.4,6.7c-2.1,2.8-3.5,4.6-4.3,5.7
			c-0.8,1-2.4,3-4.8,5.9c-2.4,2.9-3.8,4.5-4,4.8c2.9-2.9,7-7.2,12.1-12.9c5.2-5.7,9.6-10.5,13.2-14.3c3.6-3.8,8.1-8.2,13.5-13
			c5.4-4.8,10.4-8.7,15.1-11.8c11.2-7.1,22.6-10.6,34.1-10.6c3.9,0,7.3,1.2,10,3.7c2.7,2.5,4,5.5,4,9c0,3.5-4.2,11.8-12.6,24.9
			c-8.4,13.1-16.8,26.3-25.1,39.6c-8.4,13.2-12.5,21.6-12.5,25c0,4.8,0.9,7.6,2.6,8.5c1.8,0.9,3.9,1.2,6.4,1c2.5-0.2,6-1.8,10.5-4.8
			c4.5-3,8.5-6.1,12.1-9.3c5.7-5.2,11-10.2,15.9-15.1c1-0.9,2.2-1.4,3.4-1.4c2,0,3.2,1.5,3.6,4.5c0.4,3,0.6,6.1,0.6,9.3
			c0,3.2-0.3,5.5-0.9,6.7c-3,5.8-9.7,12.9-19.9,21.3s-20.1,12.6-29.6,12.6c-1.1,0-2-0.1-2.5-0.2c-10.7-1-18.1-4-22.2-8.8
			c-4.1-4.8-6.2-10.6-6.2-17.2c0-6.6,2.3-14.7,6.8-24.1c4.5-9.4,9.5-18,14.9-25.7c5.4-7.7,10.4-14.6,14.9-20.8
			c4.5-6.2,6.8-9.5,6.8-10c0-0.5-0.4-0.8-1.2-0.8c-3.2,0-10.4,5.2-21.5,15.6c-19,17.8-35.4,34.9-49.2,51.4
			c-3.6,4.4-12.3,15.4-25.8,33.2c-1.6,2.1-4,3.1-7.4,3.1c-3.4,0-6.9-0.7-10.5-1.9c-3.6-1.3-5.5-3-5.5-5.1c0-1,8.3-15.6,24.8-43.7
			c16.5-28.1,24.8-43.4,24.8-45.9c0-2.5-1.5-3.8-4.6-3.8c-3.1,0-9.4,4.6-18.9,13.7c-26.3,25.1-46.6,50.1-61,74.9
			c-0.9,1.5-2.8,3.7-5.4,6.9C284.9,550.6,283.1,552.2,282.2,552.2z"/>
		<path class="st0" d="M581.9,432.6c3.1,0,6.3,1.4,9.6,4.2s4.9,7.1,4.9,12.8c0,5.8-2,13.2-6.1,22.4c-4,9.2-9.6,18.5-16.7,28
			c-7.1,9.5-14.8,18.4-23.3,26.8c-8.5,8.4-17.6,15.2-27.4,20.6c-9.8,5.3-18.7,8-26.7,8c-8,0-14.4-2.5-19.2-7.6c-4.8-5-7.2-12-7.2-21
			c0-9,2.2-18.9,6.6-29.8c4.4-10.9,10.1-20.5,17.1-28.9c7-8.4,14.5-15.9,22.6-22.5c16.9-13.6,31.8-20.4,44.5-20.4
			c5.7,0,10,1.4,12.9,4.2c1,0.9,1.6,1.8,1.6,2.5v0.9C576.5,432.7,578.8,432.6,581.9,432.6z M566.2,453.3h-1.1
			c-3.6,0-5.5-2.6-5.5-7.9c-7.6,2.5-15.5,6.9-23.8,13.1c-8.3,6.2-15.7,13.6-22.3,22.1c-13.3,17-20,31.4-20.2,43.1
			c0,5.8,2.1,8.7,6.4,8.7c4.3,0,10.6-2.8,19-8.4c8.4-5.6,16.7-13.6,25-24c8.3-10.4,14.4-19.4,18.5-27c4.1-7.6,6.2-12.8,6.2-15.6
			C568.4,454.7,567.6,453.3,566.2,453.3z"/>
		<path class="st1" d="M673.1,399c0,6.7,11.8,10.1,35.3,10.1c5.8,0,10.1-0.6,12.9-1.9c7.4-3.5,16.4-5.3,27.2-5.3
			c10.7,0,16.1,2.8,16.1,8.3c0,2.2-0.9,5.4-2.7,9.6c-1.8,4.2-3.2,6.8-4,7.7c-0.9,0.9-4.2,2.2-10,3.8c-5.8,1.6-9.6,2.5-11.3,2.6
			c-1.7,0.2-2.9,0.3-3.4,0.4c-0.6,0.1-1.2,0.2-2,0.3c-0.8,0.1-2.5,0.4-5.2,0.9c-2.7,0.5-4.7,0.4-5.9-0.1
			c-34.4,16.9-58,35.5-70.8,55.7c-5.8,9.1-8.7,17-8.7,23.5c0,10.3,7.1,15.4,21.3,15.4c11.1,0,25.2-4.4,42.4-13.1
			s32.3-19.3,45.5-31.7c13.2-12.4,19.9-23.2,19.9-32.3c0-2.9,2.2-4.4,6.5-4.4c10.1,0,15.1,6,15.1,17.9c0,5.6-2.4,12.3-7.3,20
			c-4.9,7.7-11.7,15.6-20.4,23.5s-18.4,15.3-29.1,22.2c-10.7,6.9-22.6,12.5-35.6,16.8c-13,4.4-24.1,6.5-33.1,6.5
			c-9,0-16.3-0.9-21.9-2.6c-5.6-1.7-10.8-4.3-15.6-7.7c-10.6-7.4-15.9-18.5-15.9-33.5c0-8.1,2.2-16.3,6.5-24.7
			c4.4-8.4,10.1-16,17.1-22.8c13-12.9,26.9-23.6,41.7-32.1c-21.4-4.9-32.1-15.9-32.1-33c0-19.3,14.8-37,44.5-52.9
			c16.5-8.8,34.4-15.2,53.7-19c9.1-1.9,16.8-2.8,22.9-2.8c12.5,0,21.9,1,28.2,3c3.8,1.9,7,4.5,9.3,7.9c2.4,3.4,3.6,6.3,3.6,8.7
			c0,2.4-0.3,4.6-0.9,6.6c-0.6,2-1.7,3.5-3.1,4.7c-2.1,1.6-4.4,2.8-7,3.6c-2.6,0.8-4.1,1.4-4.5,1.6c-8.1,3.4-15.1,5.1-20.9,5.1
			c-10.4,0-16-1.3-17-4c0.2-2.7,1.3-5.8,3.4-9.3c-9.9,0.4-20.1,2.4-30.7,6s-19.8,7.8-27.5,12.6c-7.7,4.8-14.1,9.8-19.1,15
			C675.6,391.1,673.1,395.5,673.1,399z"/>
		<path class="st1" d="M866.1,527.3c0,4.6,3.1,6.9,9.3,6.9c3.3,0,7.5-1.7,12.5-5c5-3.3,9.6-7,13.6-10.9c10.8-10.7,16.9-16,18.4-16
			c2.7,0,4,3.9,4,11.7c0,7.8-2.4,13.1-7.3,16c-14.8,13.4-26.3,21.5-34.4,24.4c-4.6,1.6-9.6,2.3-15.1,2.2c-5.5-0.1-11-2.5-16.3-7.2
			c-5.4-4.7-8.1-10.4-8.1-17.1s1.8-14.3,5.3-22.8c3.5-8.5,7.1-15.8,10.8-21.9c3.7-6.1,8.2-13.1,13.6-21.2c5.4-8,8.3-13.1,8.6-15
			l-0.3-0.3c-3.4,0.3-11.9,7.1-25.5,20.2c-13.5,13.2-24.7,24.7-33.6,34.4c-8.8,9.8-19.4,22.8-31.6,39.1c-3.4,4.5-6.2,6.7-8.4,6.7
			s-5.1-0.7-8.8-2.1s-5.9-2.4-6.8-3c-0.8-0.6-1.2-1.6-1.2-2.8s0.4-2.8,1.1-4.6c0.7-1.8,1.4-3.3,2.1-4.5c0.7-1.2,1.8-3,3.3-5.5
			c1.6-2.5,4.6-7.8,9.3-15.8c4.6-8,11.7-20.1,21.3-36c9.5-16,15.3-25.6,17.1-29c3.9-6.9,7.2-11.8,9.7-14.9
			c4.7-5.9,12.6-8.9,23.7-8.9c2.5,0,3.7,1.6,3.7,4.7c0,4.9-4.5,14.1-13.5,27.6l-6.5,9.8c18-19.9,33.1-32.5,45.5-37.8
			c6-2.6,11.4-3.9,16.3-3.9s8.7,1.3,11.5,3.9c2.9,2.6,4.3,5.5,4.3,8.6c0,3.2-1.1,7-3.3,11.4c-2.2,4.4-4.4,8.4-6.6,11.8
			c-2.2,3.5-5.2,7.9-8.8,13.2c-3.6,5.3-5.6,8.2-5.9,8.6c-0.3,0.5-1.1,1.7-2.4,3.7c-1.3,2-2.3,3.5-2.9,4.4c-0.6,0.9-1.7,2.6-3.1,4.9
			c-1.5,2.3-2.6,4.3-3.5,5.8c-0.9,1.6-2,3.5-3.3,5.8c-1.3,2.3-2.3,4.3-3.1,5.9c-0.8,1.7-1.6,3.5-2.4,5.5
			C866.8,521.9,866.1,524.9,866.1,527.3z"/>
		<path class="st1" d="M1080,460.5c2.5,0,3.7,2,3.7,6c0,4-0.9,10.9-2.6,20.6c-1.4,6.5-8.8,15.9-22.4,28
			c-16.4,14.5-34.4,24.9-54,31.1c-11.8,3.7-23.4,5.6-34.6,5.6c-11.3,0-21.5-4.7-30.8-14.2c-9.3-9.5-13.9-20.8-13.9-33.8
			c0-13,2.6-26.5,7.9-40.5c5.2-14,12.3-27.3,21.2-40c8.9-12.7,19.4-24.9,31.5-36.7c12.1-11.7,24.7-21.9,37.8-30.5
			c13.1-8.6,26.8-15.5,41.1-20.6c14.3-5.1,27.9-7.6,40.8-7.6c10.2,0,18.8,3.7,26,11.1c3.7,3.9,5.6,8.9,5.6,14.9
			c0,6-2.9,13.5-8.7,22.6c-5.8,9.1-12.7,17.4-20.6,24.8c-7.9,7.5-16.1,13.8-24.6,19c-8.5,5.2-15.2,7.8-20.3,7.8
			c-5.1,0-9.4-1.6-13.1-4.7c-3.6-3.2-5.5-6-5.5-8.5s0.5-5.2,1.6-8.3c1.1-3,2.5-4.5,4.1-4.5c-0.4,0.5-0.6,1-0.6,1.6
			c0,1.2,1.8,1.9,5.4,1.9s9.6-3.2,18-9.5c8.4-6.3,16-13.4,22.8-21.3c6.8-7.9,10.2-13.8,10.2-17.8c0-2.7-1.8-4-5.4-4
			c-9.8,0-23.2,4.5-40.4,13.6c-17.2,9.1-33.6,20.8-49.3,35.1c-15.7,14.3-29.3,31.3-40.9,51c-11.6,19.7-17.4,37.3-17.4,53
			c0,6.5,1.7,11.8,5.2,15.7c3.5,3.9,8.8,5.9,16,5.9c7.2,0,15.8-2.1,25.6-6.2c9.9-4.2,19.2-9.2,28.1-15.3c8.9-6,17.3-12.2,25.1-18.5
			c7.9-6.3,14.2-11.9,18.9-16.7c4.7-4.8,7.1-7.7,7.2-8.6C1078.7,461,1079.2,460.5,1080,460.5z"/>
		<path class="st1" d="M1209.4,432.9c7.9,0,11.8,2.7,11.8,8.1c0,2.9-0.7,5-2,6.4c-1.3,1.4-4.2,5.8-8.6,13.5
			c-4.4,7.6-9.3,17.4-14.6,29.3c-5.3,11.9-8.8,22-10.4,30.4c-0.3,1-0.5,2.5-0.5,4.4c0,5.7,1.6,8.6,4.7,8.6c3.1,0,6.8-1.5,11.1-4.4
			c4.3-3,8-6.1,11.4-9.5c3.3-3.4,6.6-6.8,9.7-10.4c3.2-3.5,5.1-5.6,5.7-6.1c0.6-0.5,1.6-0.8,2.8-0.8c2,0,3.2,1.5,3.6,4.5
			c0.4,3,0.6,6.1,0.6,9.3c0,3.2-0.3,5.5-0.9,6.7c-3,5.9-9.6,13-19.9,21.3c-10.2,8.3-19.5,12.5-27.9,12.5c-8.4,0-14.5-2.5-18.5-7.6
			c-3.9-5.1-5.9-10.7-5.9-16.9c0-6.2,1-11.6,3.1-16.3c-8.6,11.2-18.5,20.7-29.7,28.5c-11.2,7.8-20.3,11.7-27.3,11.7
			c-7.1,0-12.8-2.1-17.3-6.4c-5.7-5.3-8.6-12.6-8.6-22c0-9.4,2.1-18.8,6.3-28.3s9.7-18.2,16.6-26c6.9-7.8,14.4-15,22.6-21.4
			c17.2-13.5,33.1-20.2,47.6-20.2c5.6,0,10.2,0.9,13.7,2.8c3.5,1.9,5.8,4.2,6.7,7c2.5-3.7,4.6-6.1,6.3-7.1
			C1203.4,433.4,1206,432.9,1209.4,432.9z M1188.7,450.2c-17.8,0-36.1,9.9-55.1,29.6c-6.7,7.1-13,15.5-18.6,25.4
			c-5.7,9.9-8.5,16.6-8.5,20.2c0,3.6,1,5.4,3.1,5.4c2.9,0,11-5.7,24.3-17.2c13.3-11.5,22.1-19.9,26.5-25.3
			C1165.1,482.3,1174.6,469.6,1188.7,450.2z"/>
		<path class="st1" d="M1237.6,520.1l-0.2,2.5c0,2.6,1,4.8,3,6.7c2,1.9,3.8,2.8,5.5,2.8c12.5,0,23.5-1.9,33.1-5.6
			c9.6-3.7,14.4-7.5,14.4-11.2c0-1.8-1.7-3.3-5.2-4.6c-3.5-1.3-9.3-2.9-17.6-4.8c-8.3-1.9-14.2-3.4-18-4.5s-6.7-2.1-8.9-3
			c-2.2-0.9-4.4-2.2-6.7-3.9c-4.9-3.4-7.3-8.5-7.3-15.3c0-6.8,2.5-13.5,7.6-20.2c5-6.7,11.3-12.4,18.9-17.2
			c7.6-4.8,15.7-9,24.4-12.6c17.2-7.2,31.7-10.7,43.4-10.7c11.5,0,18.6,2.5,21.3,7.5c0.8,1.8,1.2,3.7,1.2,5.9v1.1
			c0,5.5-1.2,9.8-3.5,12.9c-2.3,3.1-6,5.9-11.1,8.4c-5,2.5-9,3.7-12,3.7c-3,0-4.8-0.2-5.6-0.6c-0.8-0.4-1.4-1-1.9-1.6
			c-0.5-0.7-1.2-1.2-1.9-1.5s-1.2-1.1-1.2-2.3c0-1.2,0.5-2.5,1.6-3.8c1-1.3,1.8-2.7,2.2-4.1c-6.9,0.3-14,1.9-21.5,4.7
			c-7.5,2.9-13.9,6-19.2,9.6c-5.3,3.5-9.8,6.9-13.3,10.1c-3.5,3.2-5.3,5.6-5.3,7.1c0,1.5,2.4,2.7,7.2,3.7
			c21.5,4.3,35.6,7.9,42.4,11.1c6.7,3.1,11.4,6.6,14,10.6c2.6,3.9,3.9,7.5,3.9,10.7c0,6.6-2.6,12.9-7.9,18.8s-11.8,10.7-19.6,14.5
			c-16.7,8.2-31.3,12.3-43.7,12.3c-12.4,0-21-1.9-25.7-5.7c-4.7-3.8-7.1-8.3-7.1-13.5c0-5.2,1.3-10,4-14.4c2.6-4.4,6-6.6,10.2-6.6
			C1235.5,516.9,1237.6,517.9,1237.6,520.1z"/>
		<path class="st1" d="M1456.5,432.9c7.9,0,11.8,2.7,11.8,8.1c0,2.9-0.7,5-2,6.4c-1.3,1.4-4.2,5.8-8.6,13.5
			c-4.4,7.6-9.3,17.4-14.6,29.3c-5.3,11.9-8.8,22-10.4,30.4c-0.3,1-0.5,2.5-0.5,4.4c0,5.7,1.6,8.6,4.7,8.6c3.1,0,6.8-1.5,11.1-4.4
			c4.3-3,8-6.1,11.4-9.5c3.3-3.4,6.6-6.8,9.7-10.4c3.2-3.5,5.1-5.6,5.7-6.1c0.6-0.5,1.6-0.8,2.8-0.8c2,0,3.2,1.5,3.6,4.5
			c0.4,3,0.6,6.1,0.6,9.3c0,3.2-0.3,5.5-0.9,6.7c-3,5.9-9.6,13-19.9,21.3c-10.2,8.3-19.5,12.5-27.9,12.5c-8.4,0-14.5-2.5-18.5-7.6
			c-3.9-5.1-5.9-10.7-5.9-16.9c0-6.2,1-11.6,3.1-16.3c-8.6,11.2-18.5,20.7-29.7,28.5c-11.2,7.8-20.3,11.7-27.3,11.7
			c-7.1,0-12.8-2.1-17.3-6.4c-5.7-5.3-8.6-12.6-8.6-22c0-9.4,2.1-18.8,6.3-28.3s9.7-18.2,16.6-26c6.9-7.8,14.4-15,22.6-21.4
			c17.2-13.5,33.1-20.2,47.6-20.2c5.6,0,10.2,0.9,13.7,2.8c3.5,1.9,5.8,4.2,6.7,7c2.5-3.7,4.6-6.1,6.3-7.1
			C1450.5,433.4,1453.1,432.9,1456.5,432.9z M1435.8,450.2c-17.8,0-36.1,9.9-55.1,29.6c-6.7,7.1-13,15.5-18.6,25.4
			c-5.7,9.9-8.5,16.6-8.5,20.2c0,3.6,1,5.4,3.1,5.4c2.9,0,11-5.7,24.3-17.2c13.3-11.5,22.1-19.9,26.5-25.3
			C1412.3,482.3,1421.7,469.6,1435.8,450.2z"/>
	</g>
	<g>
		<path class="st0" d="M359.1,660.9h-49.5v19.6h45.5V697h-45.5v24.2h51.7v16.5h-70.9v-93.3h68.6V660.9z"/>
		<path class="st0" d="M438.3,737.7h-18.2v-42c0-5.1-0.3-13.7-11.8-13.7c-8.1,0-14.3,5.5-14.3,16v39.7h-18.2v-69.2h17.4v10.1h0.3
			c2.5-4.2,7.7-12,20.8-12c13.5,0,24.1,7.9,24.1,23.1V737.7z"/>
		<path class="st0" d="M553.8,737.7h-18.2v-42c0-5.1-0.3-13.7-11.8-13.7c-8.1,0-14.3,5.5-14.3,16v39.7h-18.2v-69.2h17.4v10.1h0.3
			c2.5-4.2,7.7-12,20.8-12c13.5,0,24.1,7.9,24.1,23.1V737.7z"/>
		<path class="st0" d="M589.4,660.4h-18.2v-16.9h18.2V660.4z M589.4,668.6v69.2h-18.2v-69.2H589.4z"/>
		<path class="st0" d="M669.4,737.7h-18.2v-42c0-5.1-0.3-13.7-11.8-13.7c-8.1,0-14.3,5.5-14.3,16v39.7h-18.2v-69.2h17.4v10.1h0.3
			c2.5-4.2,7.7-12,20.8-12c13.5,0,24.1,7.9,24.1,23.1V737.7z"/>
		<path class="st0" d="M749.7,668.6v65.5c0,12-0.9,31.9-35,31.9c-14.3,0-29.4-6.1-30.2-20.8h19.8c0.8,3.5,2.2,7,12.7,7
			c9.8,0,14.4-4.7,14.4-15.9V728l-0.3-0.3c-3,5.3-7.5,10.4-18.5,10.4c-16.6,0-29.8-11.6-29.8-35.8c0-23.9,13.5-35.6,28.7-35.6
			c12.9,0,18.1,7.5,20.3,12.1h0.3v-10.3H749.7z M716.2,722.8c12.4,0,15.5-10.5,15.5-20c0-11.2-5.5-20.3-15.6-20.3
			c-6.8,0-14.3,4.9-14.3,21.1C701.8,712.4,705.4,722.8,716.2,722.8z"/>
		<path class="st0" d="M828.1,737.7h-17.4V728h-0.3c-4.2,7.4-11.4,11.6-21.1,11.6c-13.7,0-23.5-7.8-23.5-25.5v-45.5h18.2v42.9
			c0,10.7,6.2,12.7,11.8,12.7c6,0,14-3.4,14-15.7v-39.9h18.2V737.7z M802.5,659.2h-13.1l12.2-19h20L802.5,659.2z"/>
		<path class="st0" d="M907.7,737.7h-18.2v-42c0-5.1-0.3-13.7-11.8-13.7c-8.1,0-14.3,5.5-14.3,16v39.7h-18.2v-69.2h17.4v10.1h0.3
			c2.5-4.2,7.7-12,20.8-12c13.5,0,24.1,7.9,24.1,23.1V737.7z"/>
		<path class="st0" d="M999.9,689.6c-0.8-4.4-2.3-9.1-12.2-9.1s-11.2,3.8-11.2,6.8c0,10.9,43.3,3,43.3,28.5
			c0,20.2-19.5,23.8-30.3,23.8c-15.7,0-32.8-5.5-33.3-23.9h18.7c0,5.8,3.6,10.1,15.1,10.1c9.4,0,11.6-4.5,11.6-7.1
			c0-11.6-42.9-2.9-42.9-28.7c0-10.1,6.4-23.1,28-23.1c13.5,0,29.6,3.4,31.1,22.9H999.9z"/>
		<path class="st0" d="M1051.7,660.4h-18.2v-16.9h18.2V660.4z M1051.7,668.6v69.2h-18.2v-69.2H1051.7z"/>
		<path class="st0" d="M1089.5,668.6h11.3v13h-11.3v37.6c0,4,0.1,5.6,7.5,5.6c1.2,0,2.5-0.1,3.8-0.3v13.8c-2.9,0.1-5.7,0.3-8.6,0.3
			h-2.3c-15.7,0-18.6-6-18.6-15v-42h-9.4v-13h9.4v-18.7h18.2V668.6z"/>
		<path class="st0" d="M1131.1,660.4h-18.2v-16.9h18.2V660.4z M1131.1,668.6v69.2h-18.2v-69.2H1131.1z"/>
		<path class="st0" d="M1179.9,739.5c-18.6,0-35.4-11.4-35.4-36.4s16.8-36.4,35.4-36.4s35.4,11.4,35.4,36.4
			S1198.5,739.5,1179.9,739.5z M1179.9,682.1c-14,0-16.6,12.2-16.6,21.1c0,8.8,2.6,21.1,16.6,21.1c14,0,16.6-12.2,16.6-21.1
			C1196.5,694.3,1193.9,682.1,1179.9,682.1z"/>
	</g>
</g>
<g id="Capa_3" class="st2">
	<rect x="-25.5" y="317.9" class="st3" width="1514.4" height="402.6"/>
	<text transform="matrix(1 0 0 1 -25.5336 551.2675)" class="st4 st5 st6">ComoEnCasa</text>
	<rect x="280.6" y="644.4" class="st3" width="975.8" height="252.3"/>
	<text transform="matrix(1 0 0 1 280.5704 737.7218)" class="st4 st7 st8">En ningún sitio</text>
</g>
</svg>
